PathFileType	4	(X/Y/Z)	C:/Users/beibeiliu/ov580/test_trc/User3\sequence.13_training_dense_right.trc
DataRate	CameraRate	NumFrames	NumMarkers	Units	OrigDataRate	OrigDataStartFrame	OrigNumFrames
120	120	24	19	mm	120	174	278
Frame#	Time	ThumbCMC			ThumbMCP			ThumbIP			ThumbTip			IndexMCP			IndexPIP			IndexTip			MiddleMCP			MiddlePIP			MiddleTip			RingMCP			RingPIP			RingTip			PinkyMCP			PinkyPIP			PinkyTip			BackHand1			BackHand2			BackHand3	
		X0	Y0	Z0	X1	Y1	Z1	X2	Y2	Z2	X3	Y3	Z3	X4	Y4	Z4	X5	Y5	Z5	X6	Y6	Z6	X7	Y7	Z7	X8	Y8	Z8	X9	Y9	Z9	X10	Y10	Z10	X11	Y11	Z11	X12	Y12	Z12	X13	Y13	Z13	X14	Y14	Z14	X15	Y15	Z15	X16	Y16	Z16	X17	Y17	Z17	X18	Y18	Z18	
173	1.44167	130.022	-1.29525	36.5401	111.525	-24.817	18.805	119.51	-53.9598	1.19886	147.001	-67.2613	4.17402	115.546	-19.3553	-37.2542	103.518	-28.2681	-55.1839	91.7652	-39.4293	-76.1286	142.045	-34.5851	-44.9093	129.998	-43.9349	-66.5376	120.431	-59.1813	-92.7227	161.889	-45.4469	-32.9073	157.484	-56.2411	-54.0589	155.285	-71.277	-78.7234	182.854	-56.8178	-11.1469	184.189	-68.3297	-28.358	189.982	-82.1689	-48.2566	177.433	-16.636	5.83288	191.101	-2.17306	27.1723	155.002	10.237	14.0413	
174	1.45	128.016	2.59674	39.2016	109.763	-21.9726	17.3185	115.384	-47.4595	4.22933	140.524	-65.7578	3.24382	113.628	-14.8044	-36.251	98.5659	-21.668	-53.5884	86.0196	-31.6294	-76.4754	139.789	-30.7746	-42.7787	127.824	-40.0918	-63.1693	113.599	-49.5645	-91.6816	158.566	-42.7124	-33.0557	153.977	-55.1447	-57.9114	151.962	-67.8576	-79.2995	176.926	-55.3727	-14.1298	179.505	-68.173	-29.5714	182.114	-82.5342	-50.2994	176.777	-14.4207	3.31173	191.285	-4.67676	28.5211	156.699	10.5958	17.0284	
175	1.45833	127.16	4.7042	37.8643	107.806	-16.4973	15.611	112.868	-42.7426	-2.48074	135.408	-56.2498	1.12545	115.177	-7.56627	-35.7901	99.1939	-11.9152	-56.223	82.8114	-17.8744	-78.0618	135.953	-21.5514	-44.2083	124.033	-29.9439	-70.7497	116.69	-40.4399	-93.3196	155.721	-37.9762	-37.4415	150.355	-45.9703	-59.3122	147.048	-55.9802	-79.2278	174.929	-52.4989	-20.2037	174.423	-62.696	-36.1541	182.011	-74.2908	-52.5515	178.455	-13.2363	4.85384	187.06	-2.96294	29.9763	157.946	13.1248	15.0116	
176	1.46667	127.346	6.7105	37.7518	107.28	-10.0578	12.8328	112.071	-36.1164	-8.8148	136.038	-49.3815	-4.38964	116.851	-0.179891	-40.1952	99.542	0.330964	-58.624	87.1552	-2.65892	-78.4411	137.76	-14.2191	-49.9038	126.619	-18.5214	-72.8	118.643	-25.8383	-99.6002	153.111	-27.4951	-41.9781	149.84	-33.5087	-59.4028	148.728	-43.2694	-87.5712	172.926	-45.0413	-23.0253	176.81	-56.725	-37.4066	181.626	-65.3671	-56.2861	174.829	-11.4857	0.400045	188.055	-1.31389	29.6126	155.984	14.6105	17.2039	
177	1.475	124.238	7.99164	38.1864	104.72	-7.55325	9.88548	117.367	-28.5548	-13.2403	136.086	-47.6807	-15.5154	115.769	11.5243	-40.4338	104.607	8.62056	-64.2075	93.5809	9.31656	-83.274	142.494	-3.8219	-48.371	129.329	-4.45693	-76.3316	123.063	-7.86681	-106.597	160.347	-21.1221	-43.0332	156.827	-23.8507	-64.4887	153.555	-27.5847	-90.5359	176.204	-38.6309	-25.1003	175.896	-43.0465	-42.8367	181.049	-49.8876	-66.5204	176.323	-2.97658	4.46681	188.549	1.06574	30.3459	155.66	20.7687	19.8708	
178	1.48333	125.916	5.25609	36.7855	108.686	-6.55056	3.53543	116.142	-24.9451	-21.8902	141.752	-40.2802	-23.1841	120.297	17.0461	-38.2315	109.943	18.4232	-62.5407	99.0172	20.9721	-86.5515	144.964	5.90181	-49.5351	136.727	6.82288	-74.5046	130.117	6.83701	-109.122	162.11	-8.6348	-47.1561	164.471	-12.3612	-67.1632	162.775	-13.4001	-92.6821	178.112	-26.3721	-28.3439	181.923	-30.622	-47.889	191.279	-33.8224	-67.2491	175.655	0.955247	2.96785	188.031	3.68487	28.9396	155.547	19.0118	19.805	
179	1.49167	124.514	2.52831	32.6725	111.517	-7.86844	3.47522	121.239	-21.8196	-20.3811	145.95	-34.2208	-24.768	124.465	19.9852	-44.0252	109.914	23.2864	-63.024	106.912	23.862	-85.026	149.334	12.9726	-48.6951	144.985	12.7863	-74.3733	138.773	15.999	-105.27	170.552	-1.91649	-46.0678	166.973	0.89064	-69.3931	168.501	1.29078	-96.272	184.084	-17.2406	-33.9168	188.768	-19.0442	-49.5328	199.999	-18.4576	-71.2557	179.632	4.31103	4.44626	188.418	4.99668	32.7886	154.071	21.1639	22.4293	
180	1.5	127.113	-2.6416	32.5876	111.545	-11.9167	2.30068	127.932	-22.6293	-25.4109	152.416	-35.3392	-31.1212	128.529	18.9449	-39.4114	117.335	23.5248	-66.1994	107.722	28.4381	-87.3891	152.076	15.5674	-50.8119	146.349	18.2989	-75.5486	144.523	22.4448	-106.24	170.06	4.78287	-43.5646	174.805	7.89781	-71.0813	175.399	10.3091	-92.9927	189.304	-13.0059	-28.9463	197.046	-11.607	-49.5142	208.012	-9.86184	-69.107	182.422	7.8003	1.609	189.263	8.32752	35.6819	154.234	20.8396	24.0033	
181	1.50833	127.084	-5.73209	28.7691	115.996	-15.7332	-2.69163	130.57	-27.3968	-26.3372	157.749	-36.215	-28.5157	128.758	16.8933	-41.7987	119.756	20.0907	-68.5048	113.702	22.9804	-89.4742	158.024	13.6725	-49.3655	153.217	16.9892	-76.9557	147.337	23.1195	-107.714	179.209	2.87242	-42.8777	180.96	6.93084	-69.0362	178.2	12.1355	-93.2517	196.871	-12.4454	-30.9749	202.072	-10.8057	-50.1447	212.14	-5.67139	-64.5025	179.608	8.62285	6.33984	186.713	9.05182	33.2283	154.509	16.2772	23.013	
182	1.51667	126.205	-7.22765	28.2946	118.036	-20.8662	-1.69824	139.003	-33.3572	-30.816	166.543	-41.133	-26.4347	130.638	11.401	-48.0842	125.211	11.7188	-71.0471	120.772	12.4251	-92.5267	159.419	7.65969	-50.513	159.361	7.60801	-76.8417	152.201	13.7685	-110.586	178.767	-0.98384	-42.3908	184.669	1.85469	-69.3304	188.191	3.02813	-95.5585	199.982	-14.7254	-30.6414	205.67	-14.7106	-49.2184	216.298	-9.86304	-63.3806	182.67	7.23658	1.21218	190.418	6.15	33.9793	154.048	17.9019	19.9739	
183	1.525	130.946	-10.2955	27.4263	122.185	-26.615	-3.7743	140.518	-41.0715	-27.2274	170.301	-47.9194	-22.9305	137.089	1.72338	-46.1555	125.326	0.719803	-71.1773	120.036	1.52247	-93.5117	164.89	-2.06867	-52.9266	162.115	-2.30701	-81.1952	159.867	-2.62019	-112.116	183.968	-8.25449	-47.3158	186.823	-8.25296	-71.2618	189.486	-8.6212	-94.9848	203.111	-23.807	-25.4319	211.624	-23.4707	-45.5325	221.454	-18.9792	-66.5165	185.108	2.79841	1.63314	190.505	5.46735	33.5921	154.258	14.1212	16.1308	
184	1.53333	129.305	-13.3731	25.6569	125.77	-32.0437	-2.4462	145.315	-48.9623	-23.309	171.518	-52.349	-16.2114	134.083	-8.09787	-48.4752	127.127	-11.701	-73.7831	123.864	-14.2509	-94.7752	164.954	-11.6928	-54.9407	163.974	-16.2972	-77.6204	160.326	-16.8031	-112.147	183.327	-18.1349	-43.1336	185.712	-18.6691	-68.9305	192.877	-22.5152	-94.6865	200.705	-29.7499	-24.1716	215.574	-32.2962	-41.9248	226.493	-32.0906	-60.0208	183.558	-3.05562	2.80639	187.413	4.8247	29.8078	155.384	8.6579	16.0732	
185	1.54167	131.362	-17.7542	30.7711	121.909	-40.7618	2.97755	144.824	-55.4075	-15.1645	172.5	-59.8953	-11.3438	133.572	-19.636	-48.323	126.004	-24.5593	-68.3919	122.108	-32.0136	-96.1491	159.679	-21.4713	-55.3271	161.042	-29.734	-79.63	157.373	-34.6015	-106.425	183.521	-27.7089	-45.5753	187.732	-31.137	-63.3317	188.259	-34.9583	-91.4774	199.558	-36.1002	-21.7138	212.524	-39.7283	-42.4188	224.681	-42.3637	-57.5586	183.139	-8.1674	0.332667	189.474	1.3602	33.3818	154.191	5.81601	17.2834	
186	1.55	130.791	-18.7903	33.8449	121.073	-44.1622	6.42487	143.987	-61.3696	-11.6552	169.909	-67.1842	-7.97265	131.692	-27.5325	-42.3407	122.104	-36.9092	-66.7966	118.131	-45.4304	-89.9954	158.521	-30.9731	-49.6612	155.755	-39.5068	-72.9704	153.301	-49.704	-106.112	183.323	-36.8167	-42.2372	185.032	-43.468	-61.9328	185.495	-49.671	-87.9397	203.676	-43.5845	-20.6815	207.651	-49.1928	-39.785	219.073	-51.3	-56.7312	182.808	-12.7018	3.35751	191.202	-0.324674	29.8967	154.275	1.51127	11.3499	
187	1.55833	130.649	-17.6416	36.3223	120.561	-43.4436	11.0911	134.542	-66.882	-4.97122	162.175	-76.1227	-4.79962	133.128	-33.7005	-39.888	117.943	-42.9145	-64.9604	115.705	-52.6548	-84.7978	157.161	-40.0249	-46.7282	150.492	-51.4628	-74.0072	148.802	-64.2775	-101.298	178.23	-45.0985	-39.7952	177.985	-52.8442	-58.3547	180.911	-64.205	-86.2118	200.823	-52.143	-19.0007	208.845	-59.9012	-36.7053	217.943	-64.3816	-56.221	186.441	-17.6405	4.20395	190.631	-4.56912	26.9343	155.07	-2.05805	12.0895	
188	1.56667	131.036	-15.5918	37.4105	112.561	-42.7208	16.2312	128.718	-67.5495	-2.25301	151.986	-80.9613	-2.40012	127	-35.0512	-39.1292	116.14	-47.001	-61.182	110.37	-56.3059	-80.6695	152.176	-44.248	-47.1296	150.721	-57.6025	-66.5548	142.028	-73.2257	-97.4235	172.412	-50.305	-35.3955	175.171	-60.8474	-55.6082	175.844	-74.8676	-80.8219	191.156	-57.2692	-14.8777	199.075	-67.115	-34.8335	208.211	-74.8237	-54.6387	184.076	-22.0023	6.97998	189.635	-6.83105	25.4108	159.932	-1.5864	15.2967	
189	1.575	125.528	-12.4368	35.7401	109.716	-38.5453	16.7505	116.744	-67.4928	-0.947213	139.647	-81.562	-1.42923	124.608	-33.8596	-33.8744	109.573	-43.6398	-58.555	101.006	-52.8121	-76.6004	148.44	-45.1231	-44.5652	140.178	-58.2827	-68.7837	133.656	-72.0518	-91.9781	168.241	-54.0045	-35.9955	166.708	-64.099	-54.8992	169.494	-80.0687	-75.7327	189.326	-61.5615	-9.80758	191.232	-72.8593	-32.9084	198.917	-82.7347	-48.3685	183.231	-23.5272	5.98456	189.131	-7.10427	27.9619	154.9	-1.20167	14.892	
190	1.58333	126.601	-7.0576	39.6316	105.879	-32.0284	19.6752	103.159	-58.7287	4.30322	120.43	-81.3289	-4.30022	120.324	-29.8121	-35.2893	107.352	-38.8965	-56.6828	97.8135	-49.2361	-78.1477	146.114	-42.834	-40.7282	138.602	-58.153	-67.3746	130.145	-72.9023	-93.0336	163.983	-54.0472	-35.5081	162.742	-64.0085	-53.5262	162.161	-79.8718	-78.7679	181.027	-60.0864	-10.5023	186.829	-73.4639	-30.5205	193.365	-86.6564	-47.1071	180.395	-25.8338	4.38031	189.24	-7.0692	29.9943	153.598	1.39879	14.5032	
191	1.59167	126.06	-6.25851	33.7278	104.753	-24.3464	23.4801	90.0646	-51.0021	2.49844	92.9406	-72.117	-4.91769	120.732	-28.9896	-39.6579	107.12	-34.605	-58.1251	96.0914	-41.3688	-76.3649	143.63	-43.2473	-46.776	136.262	-53.8103	-66.5824	124.198	-66.936	-93.1584	163.772	-51.8166	-32.9429	158.495	-62.3701	-54.9213	155.035	-76.0128	-78.2146	182.084	-62.2312	-13.1966	186.133	-76.509	-30.4558	186.312	-88.9832	-51.3417	176.883	-21.1992	2.63101	186.76	-7.97832	27.8413	155.928	-1.39475	11.47	
192	1.6	125.708	0.0150625	32.2392	98.5893	-16.3113	20.8479	85.5312	-36.9689	1.81636	75.1993	-55.3167	-6.71919	118.349	-20.8889	-39.2154	109.471	-30.0385	-58.4668	95.8016	-37.2214	-82.342	143.091	-39.7958	-47.7525	131.739	-50.514	-69.7411	121.066	-61.4915	-95.7345	159.013	-50.6765	-38.7771	158.945	-62.2361	-55.653	150.968	-73.8784	-81.7772	175.423	-61.479	-17.7544	181.399	-77.1784	-33.5526	186.134	-91.6323	-48.1087	176.766	-23.1681	2.26418	186.265	-9.68816	23.2466	157.52	5.13862	13.0942	
193	1.60833	130.317	4.67167	34.1643	99.9727	-8.04831	16.4761	80.6548	-19.2254	5.27566	64.7163	-33.2574	-8.37664	121.294	-15.4335	-38.477	107.55	-21.3483	-59.932	93.8009	-27.7128	-83.2461	139.302	-35.2545	-49.0378	130.27	-44.041	-67.9574	118.631	-55.7504	-94.6834	159.241	-48.2333	-34.9973	152.37	-59.0036	-59.1769	148.893	-71.9532	-83.2475	175.268	-63.616	-13.8174	177.657	-79.7044	-34.6184	180.183	-94.9787	-50.4794	178.986	-24.8524	-2.05756	192.456	-12.0287	25.6639	160.704	5.97223	12.7824	
194	1.61667	130.815	11.4597	31.7656	102.338	3.92316	16.4594	79.5211	-3.21001	-0.0627575	63.904	-11.5257	-9.23289	122.815	-13.481	-44.0818	108.02	-16.0961	-63.4702	99.4525	-23.6061	-82.9615	141.201	-34.3333	-51.218	131.753	-44.6406	-71.4614	119.5	-52.9085	-96.7061	156.103	-48.5176	-37.6469	152.401	-59.9605	-57.2267	148.228	-72.5573	-79.1773	168.081	-62.4801	-20.035	171.264	-78.8549	-30.5134	170.232	-91.0427	-49.2958	175.633	-24.9805	-1.45994	191.524	-13.4536	23.3864	162.143	6.81681	8.64014	
195	1.625	136.342	13.6303	27.1345	108.499	11.3038	12.1505	85.9449	10.6806	-0.85012	67.7798	6.98523	-13.7578	124.034	-9.69545	-45.398	110.23	-10.1501	-65.5073	97.7827	-13.8435	-88.35	139.693	-29.8528	-51.3546	129.662	-40.4983	-73.1065	120.684	-52.4545	-96.0178	154.147	-50.7791	-38.2777	149.498	-59.7768	-56.8299	143.029	-72.0493	-80.5712	164.577	-65.0288	-18.6016	164.582	-81.424	-29.8125	161.838	-93.8338	-51.9825	174.363	-24.1731	1.63648	190.183	-18.3137	24.5133	166.119	4.43703	9.9573	
196	1.63333	141.666	17.8293	26.3173	115.394	20.2792	8.69767	93.6753	23.6214	-5.74506	74.929	29.6685	-16.2967	127.492	-6.66536	-48.3653	114.327	-8.48627	-67.5296	103.589	-10.3629	-89.5447	140.638	-32.5693	-52.6367	131.087	-41.5857	-74.8164	118.346	-52.105	-101.975	150.988	-48.3838	-38.2325	146.898	-62.4193	-57.7626	139.148	-74.8426	-79.4621	156.645	-64.497	-16.7884	155.236	-85.3819	-32.4196	156.701	-98.7839	-44.9541	176.853	-32.7164	-1.49768	191.154	-23.6138	27.5014	169.061	0.99055	7.70688	
